<?xml version="1.0" standalone="no"?><!DOCTYPE svg PUBLIC "-//W3C//DTD SVG 1.1//EN" "http://www.w3.org/Graphics/SVG/1.1/DTD/svg11.dtd"><svg t="1656384452679" class="icon" viewBox="0 0 1024 1024" version="1.1" xmlns="http://www.w3.org/2000/svg" p-id="7134" width="16" height="16" xmlns:xlink="http://www.w3.org/1999/xlink"><defs><style type="text/css"></style></defs><path d="M512 0C229.179077 0 0 229.257846 0 512s229.257846 512 512 512 512-229.257846 512-512S794.702769 0 512 0z m-56.950154 176.364308a77.863385 77.863385 0 0 1 57.107692-23.670154h0.07877c0.393846 0 0.748308 0.118154 1.142154 0.118154 0.393846 0 0.748308-0.118154 1.142153-0.118154 21.937231 0 40.841846 7.876923 56.635077 23.670154s23.670154 34.816 23.670154 57.107692c0 22.409846-7.876923 41.432615-23.670154 57.186462a77.587692 77.587692 0 0 1-56.635077 23.670153c-0.393846 0-0.748308-0.118154-1.142153-0.118153-0.393846 0-0.748308 0.118154-1.142154 0.118153h-0.039385-0.039385c-22.331077 0-41.432615-7.876923-57.107692-23.591384a77.863385 77.863385 0 0 1-23.670154-57.225846c0-22.331077 7.876923-41.353846 23.670154-57.147077z m180.775385 695.020307H383.291077v-24.891077c18.353231-3.032615 30.838154-7.640615 37.612308-13.74523 10.161231-9.097846 15.281231-25.560615 15.28123-49.388308v-305.664c0-21.188923-3.584-35.564308-10.633846-43.204923-7.168-7.640615-21.149538-13.390769-42.259692-17.211077v-24.812308h204.327385v395.106462c0 22.685538 3.387077 37.179077 10.200615 43.638154 6.813538 6.498462 19.456 11.460923 38.006154 15.28123v24.891077z" p-id="7135" fill="#ffffff"></path></svg>